<svg width="2830px" height="284px"
 viewBox="0.00 0.00 2830.39 284.00" xmlns="http://www.w3.org/2000/svg" xmlns:xlink="http://www.w3.org/1999/xlink">
<g id="graph0" class="graph" transform="scale(1.0 1.0) rotate(0.0) translate(4.0 280.0)">
<title>dependencies</title>
<polygon fill="white" stroke="none" points="-4,4 -4,-280 2826.39,-280 2826.39,4 -4,4"/>
<!-- api &#45; API dependencies for source set &#39;main&#39;. (n) -->
<g id="node1" class="node">
<title>api &#45; API dependencies for source set &#39;main&#39;. (n)</title>
<polygon fill="none" stroke="black" points="1052.36,-276 773.86,-276 773.86,-240 1052.36,-240 1052.36,-276"/>
<text text-anchor="middle" x="913.11" y="-252.95" font-family="Times,serif" font-size="14.00">api &#45; API dependencies for source set &#39;main&#39;. (n)</text>
</g>
<!-- com.fasterxml.jackson.core:jackson&#45;core:2.13.3 (n) -->
<g id="node2" class="node">
<title>com.fasterxml.jackson.core:jackson&#45;core:2.13.3 (n)</title>
<polygon fill="none" stroke="lightcoral" points="444.23,-174.54 444.23,-189.46 315.29,-200 132.94,-200 4,-189.46 4,-174.54 132.94,-164 315.29,-164 444.23,-174.54"/>
<polygon fill="none" stroke="lightcoral" points="448.23,-170.86 448.23,-193.14 315.45,-204 132.78,-204 0,-193.14 0,-170.86 132.78,-160 315.45,-160 448.23,-170.86"/>
<text text-anchor="middle" x="224.11" y="-176.95" font-family="Times,serif" font-size="14.00">com.fasterxml.jackson.core:jackson&#45;core:2.13.3 (n)</text>
</g>
<!-- api &#45; API dependencies for source set &#39;main&#39;. (n)&#45;&gt;com.fasterxml.jackson.core:jackson&#45;core:2.13.3 (n) -->
<g id="edge1" class="edge">
<title>api &#45; API dependencies for source set &#39;main&#39;. (n)&#45;&gt;com.fasterxml.jackson.core:jackson&#45;core:2.13.3 (n)</title>
<path fill="none" stroke="black" d="M773.68,-242.02C662.26,-230.06 505.84,-213.26 388.36,-200.64"/>
<polygon fill="black" stroke="black" points="388.93,-197.18 378.62,-199.59 388.19,-204.14 388.93,-197.18"/>
</g>
<!-- com.fasterxml.jackson.core:jackson&#45;annotations:2.13.3 (n) -->
<g id="node3" class="node">
<title>com.fasterxml.jackson.core:jackson&#45;annotations:2.13.3 (n)</title>
<polygon fill="none" stroke="lightcoral" points="968.03,-174.54 968.03,-189.46 822.22,-200 616.01,-200 470.19,-189.46 470.19,-174.54 616.01,-164 822.22,-164 968.03,-174.54"/>
<polygon fill="none" stroke="lightcoral" points="972.03,-170.82 972.03,-193.18 822.36,-204 615.86,-204 466.19,-193.18 466.19,-170.82 615.86,-160 822.36,-160 972.03,-170.82"/>
<text text-anchor="middle" x="719.11" y="-176.95" font-family="Times,serif" font-size="14.00">com.fasterxml.jackson.core:jackson&#45;annotations:2.13.3 (n)</text>
</g>
<!-- api &#45; API dependencies for source set &#39;main&#39;. (n)&#45;&gt;com.fasterxml.jackson.core:jackson&#45;annotations:2.13.3 (n) -->
<g id="edge2" class="edge">
<title>api &#45; API dependencies for source set &#39;main&#39;. (n)&#45;&gt;com.fasterxml.jackson.core:jackson&#45;annotations:2.13.3 (n)</title>
<path fill="none" stroke="black" d="M867.63,-239.65C843.31,-230.37 812.9,-218.77 785.94,-208.49"/>
<polygon fill="black" stroke="black" points="787.42,-205.31 776.83,-205.01 784.92,-211.85 787.42,-205.31"/>
</g>
<!-- project custom&#45;entity (n) -->
<g id="node4" class="node">
<title>project custom&#45;entity (n)</title>
<polygon fill="none" stroke="lightcoral" points="1218.2,-174.54 1218.2,-189.46 1152.54,-200 1059.69,-200 994.03,-189.46 994.03,-174.54 1059.69,-164 1152.54,-164 1218.2,-174.54"/>
<polygon fill="none" stroke="lightcoral" points="1222.2,-171.14 1222.2,-192.86 1152.86,-204 1059.37,-204 990.03,-192.86 990.03,-171.14 1059.37,-160 1152.86,-160 1222.2,-171.14"/>
<text text-anchor="middle" x="1106.11" y="-176.95" font-family="Times,serif" font-size="14.00">project custom&#45;entity (n)</text>
</g>
<!-- api &#45; API dependencies for source set &#39;main&#39;. (n)&#45;&gt;project custom&#45;entity (n) -->
<g id="edge3" class="edge">
<title>api &#45; API dependencies for source set &#39;main&#39;. (n)&#45;&gt;project custom&#45;entity (n)</title>
<path fill="none" stroke="black" d="M958.36,-239.65C983.35,-230.07 1014.79,-218.02 1042.24,-207.49"/>
<polygon fill="black" stroke="black" points="1043.43,-210.78 1051.52,-203.93 1040.93,-204.25 1043.43,-210.78"/>
</g>
<!-- project account&#45;ms&#45;client (n) -->
<g id="node5" class="node">
<title>project account&#45;ms&#45;client (n)</title>
<polygon fill="none" stroke="lightcoral" points="1501.82,-174.54 1501.82,-189.46 1426.43,-200 1319.8,-200 1244.41,-189.46 1244.41,-174.54 1319.8,-164 1426.43,-164 1501.82,-174.54"/>
<polygon fill="none" stroke="lightcoral" points="1505.82,-171.06 1505.82,-192.94 1426.7,-204 1319.52,-204 1240.41,-192.94 1240.41,-171.06 1319.52,-160 1426.7,-160 1505.82,-171.06"/>
<text text-anchor="middle" x="1373.11" y="-176.95" font-family="Times,serif" font-size="14.00">project account&#45;ms&#45;client (n)</text>
</g>
<!-- api &#45; API dependencies for source set &#39;main&#39;. (n)&#45;&gt;project account&#45;ms&#45;client (n) -->
<g id="edge4" class="edge">
<title>api &#45; API dependencies for source set &#39;main&#39;. (n)&#45;&gt;project account&#45;ms&#45;client (n)</title>
<path fill="none" stroke="black" d="M1021.84,-239.51C1095.49,-227.66 1192.39,-212.07 1265.76,-200.27"/>
<polygon fill="black" stroke="black" points="1266.05,-203.77 1275.37,-198.72 1264.94,-196.86 1266.05,-203.77"/>
</g>
<!-- compileClasspath &#45; Compile classpath for source set &#39;main&#39;. -->
<g id="node6" class="node">
<title>compileClasspath &#45; Compile classpath for source set &#39;main&#39;.</title>
<polygon fill="none" stroke="black" points="2150.24,-276 1807.99,-276 1807.99,-240 2150.24,-240 2150.24,-276"/>
<text text-anchor="middle" x="1979.11" y="-252.95" font-family="Times,serif" font-size="14.00">compileClasspath &#45; Compile classpath for source set &#39;main&#39;.</text>
</g>
<!-- com.fasterxml.jackson.core:jackson&#45;core:2.13.3 -->
<g id="node7" class="node">
<title>com.fasterxml.jackson.core:jackson&#45;core:2.13.3</title>
<polygon fill="none" stroke="#b2dfee" points="2184.82,-174.54 2184.82,-189.46 2064.32,-200 1893.91,-200 1773.4,-189.46 1773.4,-174.54 1893.91,-164 2064.32,-164 2184.82,-174.54"/>
<polygon fill="none" stroke="#b2dfee" points="2188.82,-170.88 2188.82,-193.12 2064.5,-204 1893.73,-204 1769.4,-193.12 1769.4,-170.88 1893.73,-160 2064.5,-160 2188.82,-170.88"/>
<text text-anchor="middle" x="1979.11" y="-176.95" font-family="Times,serif" font-size="14.00">com.fasterxml.jackson.core:jackson&#45;core:2.13.3</text>
</g>
<!-- compileClasspath &#45; Compile classpath for source set &#39;main&#39;.&#45;&gt;com.fasterxml.jackson.core:jackson&#45;core:2.13.3 -->
<g id="edge5" class="edge">
<title>compileClasspath &#45; Compile classpath for source set &#39;main&#39;.&#45;&gt;com.fasterxml.jackson.core:jackson&#45;core:2.13.3</title>
<path fill="none" stroke="black" d="M1979.11,-239.84C1979.11,-232.64 1979.11,-224.02 1979.11,-215.7"/>
<polygon fill="black" stroke="black" points="1982.61,-215.82 1979.11,-205.82 1975.61,-215.82 1982.61,-215.82"/>
</g>
<!-- com.fasterxml.jackson:jackson&#45;bom:2.13.5 -->
<g id="node8" class="node">
<title>com.fasterxml.jackson:jackson&#45;bom:2.13.5</title>
<polygon fill="none" stroke="#b2dfee" points="2108.99,-94.54 2108.99,-109.46 1999.52,-120 1844.71,-120 1735.24,-109.46 1735.24,-94.54 1844.71,-84 1999.52,-84 2108.99,-94.54"/>
<polygon fill="none" stroke="#b2dfee" points="2112.99,-90.91 2112.99,-113.09 1999.71,-124 1844.52,-124 1731.24,-113.09 1731.24,-90.91 1844.52,-80 1999.71,-80 2112.99,-90.91"/>
<text text-anchor="middle" x="1922.11" y="-96.95" font-family="Times,serif" font-size="14.00">com.fasterxml.jackson:jackson&#45;bom:2.13.5</text>
</g>
<!-- compileClasspath &#45; Compile classpath for source set &#39;main&#39;.&#45;&gt;com.fasterxml.jackson:jackson&#45;bom:2.13.5 -->
<g id="edge6" class="edge">
<title>compileClasspath &#45; Compile classpath for source set &#39;main&#39;.&#45;&gt;com.fasterxml.jackson:jackson&#45;bom:2.13.5</title>
<path fill="none" stroke="black" d="M1850.1,-239.56C1809.72,-231.28 1772.45,-219.68 1760.11,-204 1748.02,-188.63 1748.81,-175.96 1760.11,-160 1770.6,-145.19 1785.26,-134.2 1801.51,-126.05"/>
<polygon fill="black" stroke="black" points="1802.81,-129.31 1810.44,-121.97 1799.89,-122.95 1802.81,-129.31"/>
</g>
<!-- com.fasterxml.jackson.core:jackson&#45;annotations:2.13.5 (c) -->
<g id="node9" class="node">
<title>com.fasterxml.jackson.core:jackson&#45;annotations:2.13.5 (c)</title>
<polygon fill="none" stroke="greenyellow" points="1542.48,-14.54 1542.48,-29.46 1396.99,-40 1191.24,-40 1045.75,-29.46 1045.75,-14.54 1191.24,-4 1396.99,-4 1542.48,-14.54"/>
<polygon fill="none" stroke="greenyellow" points="1546.48,-10.82 1546.48,-33.18 1397.14,-44 1191.09,-44 1041.75,-33.18 1041.75,-10.82 1191.09,0 1397.14,0 1546.48,-10.82"/>
<text text-anchor="middle" x="1294.11" y="-16.95" font-family="Times,serif" font-size="14.00">com.fasterxml.jackson.core:jackson&#45;annotations:2.13.5 (c)</text>
</g>
<!-- compileClasspath &#45; Compile classpath for source set &#39;main&#39;.&#45;&gt;com.fasterxml.jackson.core:jackson&#45;annotations:2.13.5 (c) -->
<g id="edge7" class="edge">
<title>compileClasspath &#45; Compile classpath for source set &#39;main&#39;.&#45;&gt;com.fasterxml.jackson.core:jackson&#45;annotations:2.13.5 (c)</title>
<path fill="none" stroke="black" d="M1860.78,-239.51C1813.08,-230.99 1757.91,-219.23 1709.11,-204 1573.22,-161.58 1421.88,-88.59 1344.98,-49.51"/>
<polygon fill="black" stroke="black" points="1346.93,-46.58 1336.43,-45.15 1343.75,-52.81 1346.93,-46.58"/>
</g>
<!-- com.fasterxml.jackson.jaxrs:jackson&#45;jaxrs&#45;base:2.13.5 (c) -->
<g id="node10" class="node">
<title>com.fasterxml.jackson.jaxrs:jackson&#45;jaxrs&#45;base:2.13.5 (c)</title>
<polygon fill="none" stroke="greenyellow" points="2058.16,-14.54 2058.16,-29.46 1914.61,-40 1711.61,-40 1568.07,-29.46 1568.07,-14.54 1711.61,-4 1914.61,-4 2058.16,-14.54"/>
<polygon fill="none" stroke="greenyellow" points="2062.16,-10.83 2062.16,-33.17 1914.76,-44 1711.47,-44 1564.07,-33.17 1564.07,-10.83 1711.47,0 1914.76,0 2062.16,-10.83"/>
<text text-anchor="middle" x="1813.11" y="-16.95" font-family="Times,serif" font-size="14.00">com.fasterxml.jackson.jaxrs:jackson&#45;jaxrs&#45;base:2.13.5 (c)</text>
</g>
<!-- compileClasspath &#45; Compile classpath for source set &#39;main&#39;.&#45;&gt;com.fasterxml.jackson.jaxrs:jackson&#45;jaxrs&#45;base:2.13.5 (c) -->
<g id="edge8" class="edge">
<title>compileClasspath &#45; Compile classpath for source set &#39;main&#39;.&#45;&gt;com.fasterxml.jackson.jaxrs:jackson&#45;jaxrs&#45;base:2.13.5 (c)</title>
<path fill="none" stroke="black" d="M1852.57,-239.53C1807.35,-230.95 1763.49,-219.15 1747.11,-204 1705.83,-165.83 1694.88,-129.19 1722.11,-80 1728.67,-68.15 1738.84,-58.44 1750.04,-50.6"/>
<polygon fill="black" stroke="black" points="1751.82,-53.61 1758.35,-45.27 1748.05,-47.72 1751.82,-53.61"/>
</g>
<!-- com.fasterxml.jackson.module:jackson&#45;module&#45;jaxb&#45;annotations:2.13.5 (c) -->
<g id="node11" class="node">
<title>com.fasterxml.jackson.module:jackson&#45;module&#45;jaxb&#45;annotations:2.13.5 (c)</title>
<polygon fill="none" stroke="greenyellow" points="2716.07,-14.54 2716.07,-29.46 2530.99,-40 2269.24,-40 2084.16,-29.46 2084.16,-14.54 2269.24,-4 2530.99,-4 2716.07,-14.54"/>
<polygon fill="none" stroke="greenyellow" points="2720.07,-10.77 2720.07,-33.23 2531.1,-44 2269.13,-44 2080.16,-33.23 2080.16,-10.77 2269.13,0 2531.1,0 2720.07,-10.77"/>
<text text-anchor="middle" x="2400.11" y="-16.95" font-family="Times,serif" font-size="14.00">com.fasterxml.jackson.module:jackson&#45;module&#45;jaxb&#45;annotations:2.13.5 (c)</text>
</g>
<!-- compileClasspath &#45; Compile classpath for source set &#39;main&#39;.&#45;&gt;com.fasterxml.jackson.module:jackson&#45;module&#45;jaxb&#45;annotations:2.13.5 (c) -->
<g id="edge9" class="edge">
<title>compileClasspath &#45; Compile classpath for source set &#39;main&#39;.&#45;&gt;com.fasterxml.jackson.module:jackson&#45;module&#45;jaxb&#45;annotations:2.13.5 (c)</title>
<path fill="none" stroke="black" d="M2108.87,-239.55C2139.6,-231.73 2171.23,-220.4 2198.11,-204 2220.17,-190.54 2217.69,-178.12 2236.11,-160 2277.14,-119.64 2328.67,-77.88 2362.91,-51.25"/>
<polygon fill="black" stroke="black" points="2364.69,-54.29 2370.45,-45.41 2360.4,-48.76 2364.69,-54.29"/>
</g>
<!-- com.fasterxml.jackson.core:jackson&#45;annotations:2.13.3 -->
<g id="node12" class="node">
<title>com.fasterxml.jackson.core:jackson&#45;annotations:2.13.3</title>
<polygon fill="none" stroke="#b2dfee" points="2718.63,-174.54 2718.63,-189.46 2581.25,-200 2386.97,-200 2249.6,-189.46 2249.6,-174.54 2386.97,-164 2581.25,-164 2718.63,-174.54"/>
<polygon fill="none" stroke="#b2dfee" points="2722.63,-170.84 2722.63,-193.16 2581.41,-204 2386.82,-204 2245.6,-193.16 2245.6,-170.84 2386.82,-160 2581.41,-160 2722.63,-170.84"/>
<text text-anchor="middle" x="2484.11" y="-176.95" font-family="Times,serif" font-size="14.00">com.fasterxml.jackson.core:jackson&#45;annotations:2.13.3</text>
</g>
<!-- compileClasspath &#45; Compile classpath for source set &#39;main&#39;.&#45;&gt;com.fasterxml.jackson.core:jackson&#45;annotations:2.13.3 -->
<g id="edge10" class="edge">
<title>compileClasspath &#45; Compile classpath for source set &#39;main&#39;.&#45;&gt;com.fasterxml.jackson.core:jackson&#45;annotations:2.13.3</title>
<path fill="none" stroke="black" d="M2098.47,-239.51C2171.85,-228.76 2266.25,-214.92 2343.28,-203.64"/>
<polygon fill="black" stroke="black" points="2343.64,-207.12 2353.02,-202.21 2342.62,-200.2 2343.64,-207.12"/>
</g>
<!-- com.fasterxml.jackson:jackson&#45;bom:2.13.5 (*) -->
<g id="node13" class="node">
<title>com.fasterxml.jackson:jackson&#45;bom:2.13.5 (*)</title>
<polygon fill="none" stroke="yellow" points="2818.39,-94.54 2818.39,-109.46 2700.49,-120 2533.74,-120 2415.84,-109.46 2415.84,-94.54 2533.74,-84 2700.49,-84 2818.39,-94.54"/>
<polygon fill="none" stroke="yellow" points="2822.39,-90.89 2822.39,-113.11 2700.66,-124 2533.56,-124 2411.84,-113.11 2411.84,-90.89 2533.56,-80 2700.66,-80 2822.39,-90.89"/>
<text text-anchor="middle" x="2617.11" y="-96.95" font-family="Times,serif" font-size="14.00">com.fasterxml.jackson:jackson&#45;bom:2.13.5 (*)</text>
</g>
<!-- compileClasspath &#45; Compile classpath for source set &#39;main&#39;.&#45;&gt;com.fasterxml.jackson:jackson&#45;bom:2.13.5 (*) -->
<g id="edge11" class="edge">
<title>compileClasspath &#45; Compile classpath for source set &#39;main&#39;.&#45;&gt;com.fasterxml.jackson:jackson&#45;bom:2.13.5 (*)</title>
<path fill="none" stroke="black" d="M2150.34,-257C2360.3,-255.17 2693.3,-245.64 2732.11,-204 2745.45,-189.69 2742.42,-176.62 2732.11,-160 2724.34,-147.48 2712.91,-137.62 2700.23,-129.89"/>
<polygon fill="black" stroke="black" points="2702.09,-126.92 2691.65,-125.11 2698.69,-133.03 2702.09,-126.92"/>
</g>
<!-- com.fasterxml.jackson.core:jackson&#45;core:2.13.3&#45;&gt;com.fasterxml.jackson:jackson&#45;bom:2.13.5 -->
<g id="edge12" class="edge">
<title>com.fasterxml.jackson.core:jackson&#45;core:2.13.3&#45;&gt;com.fasterxml.jackson:jackson&#45;bom:2.13.5</title>
<path fill="none" stroke="black" d="M1963.54,-159.69C1957.63,-151.6 1950.79,-142.24 1944.38,-133.47"/>
<polygon fill="black" stroke="black" points="1947.29,-131.52 1938.56,-125.51 1941.64,-135.65 1947.29,-131.52"/>
</g>
<!-- com.fasterxml.jackson:jackson&#45;bom:2.13.5&#45;&gt;com.fasterxml.jackson.core:jackson&#45;annotations:2.13.5 (c) -->
<g id="edge13" class="edge">
<title>com.fasterxml.jackson:jackson&#45;bom:2.13.5&#45;&gt;com.fasterxml.jackson.core:jackson&#45;annotations:2.13.5 (c)</title>
<path fill="none" stroke="black" d="M1790.85,-84.7C1692.32,-72.46 1556.98,-55.65 1452.44,-42.67"/>
<polygon fill="black" stroke="black" points="1453,-39.21 1442.65,-41.45 1452.14,-46.15 1453,-39.21"/>
</g>
<!-- com.fasterxml.jackson:jackson&#45;bom:2.13.5&#45;&gt;com.fasterxml.jackson.jaxrs:jackson&#45;jaxrs&#45;base:2.13.5 (c) -->
<g id="edge14" class="edge">
<title>com.fasterxml.jackson:jackson&#45;bom:2.13.5&#45;&gt;com.fasterxml.jackson.jaxrs:jackson&#45;jaxrs&#45;base:2.13.5 (c)</title>
<path fill="none" stroke="black" d="M1892.33,-79.69C1879.95,-70.83 1865.42,-60.43 1852.2,-50.97"/>
<polygon fill="black" stroke="black" points="1854.26,-48.14 1844.09,-45.17 1850.19,-53.83 1854.26,-48.14"/>
</g>
<!-- com.fasterxml.jackson:jackson&#45;bom:2.13.5&#45;&gt;com.fasterxml.jackson.module:jackson&#45;module&#45;jaxb&#45;annotations:2.13.5 (c) -->
<g id="edge15" class="edge">
<title>com.fasterxml.jackson:jackson&#45;bom:2.13.5&#45;&gt;com.fasterxml.jackson.module:jackson&#45;module&#45;jaxb&#45;annotations:2.13.5 (c)</title>
<path fill="none" stroke="black" d="M2033.58,-82.81C2100.49,-71.89 2186.26,-57.9 2258.01,-46.19"/>
<polygon fill="black" stroke="black" points="2258.15,-49.71 2267.45,-44.65 2257.02,-42.8 2258.15,-49.71"/>
</g>
<!-- com.fasterxml.jackson.core:jackson&#45;annotations:2.13.3&#45;&gt;com.fasterxml.jackson:jackson&#45;bom:2.13.5 (*) -->
<g id="edge16" class="edge">
<title>com.fasterxml.jackson.core:jackson&#45;annotations:2.13.3&#45;&gt;com.fasterxml.jackson:jackson&#45;bom:2.13.5 (*)</title>
<path fill="none" stroke="black" d="M2520.46,-159.69C2536.14,-150.49 2554.67,-139.62 2571.29,-129.87"/>
<polygon fill="black" stroke="black" points="2572.65,-133.13 2579.51,-125.05 2569.11,-127.09 2572.65,-133.13"/>
</g>
</g>
</svg>
